<svg xmlns="http://www.w3.org/2000/svg">
<path xmlns="http://www.w3.org/2000/svg" d="M405.269 445.409c3.893-.293 15.439-1.236 17.453-1.314-2.619-11.662-7.653-15.213-17.252-14.49-5.034.378-7.182 3.638-8.996 3.774-1.744.131-3.087-2.336-3.087-4.226 0-3.475 6.377-8.638 12.352-9.087 15.507-1.167 25.645 12.197 25.645 30.026s-11.409 26.214-22.02 26.965c-8.199.58-18.325-4.522-18.325-9.35 0-2.794 2.014-4.532 4.028-4.684 4.363-.327 4.69 5.887 14.219 5.887 5.588 0 14.445-6.607 14.445-16.655-6.108.384-11.547.943-16.984 1.352-2.887.216-5.841-.315-5.841-3.715 0-2.643 2.082-4.311 4.365-4.483zM374.378 475.334v3.205a2.875 2.875 0 01-2.875 2.875h-28.072a2.875 2.875 0 01-1.68-5.208 19.889 19.889 0 0111.619-3.747h18.133a2.875 2.875 0 012.875 2.875zM384.736 446.691c-1.242 0-2.84-.452-3.463-2.035-1.335-3.542-2.573-8.669-4.388-15.68-1.807-6.859-4.256-17.714-5.8-20.428-5.071 13.945-5.314 34.978-10.872 34.978-3.139 0-4.032-1.734-4.876-4.75-2.649-9.875-5.921-20.277-8.453-29.323-.931 2.864-4.106 19.9-3.498 29.55.027 3.543-.197 8.292-4.512 8.292-2.354 0-4.257-2.187-4.438-5.051-.263-5.201 2.576-19.298 4.082-29.625.783-5.201 1.586-23.595 7.863-23.595 4.38 0 5.68 10.253 6.938 15.681 1.352 5.879 4.069 13.719 6.186 18.241 1.051-4.07 3.532-11.382 6.094-21.56.884-3.617 1.883-11.607 6.264-11.607 2.354 0 3.764 2.638 4.494 4.899 3.168 9.8 6.524 29.851 9.279 38.293 1.775 5.353 2.943 9.348 3.024 10.63.133 2.11-2.095 3.09-3.925 3.09z" fill="#212526"/><path xmlns="http://www.w3.org/2000/svg" fill="none" stroke-linejoin="round" stroke-width="12.316" d="M446.922 368.5H317.5v130h130v-130h-.578z" stroke="#212526"/>
</svg>