<svg width="142" height="142" xmlns="http://www.w3.org/2000/svg">
 <g>
  <path fill="#212526" d="m93.85009,83.38501c3.893,-0.293 15.439,-1.236 17.453,-1.314c-2.619,-11.662 -7.653,-15.213 -17.252,-14.49c-5.034,0.378 -7.182,3.638 -8.996,3.774c-1.744,0.131 -3.087,-2.336 -3.087,-4.226c0,-3.475 6.377,-8.638 12.352,-9.087c15.507,-1.167 25.645,12.197 25.645,30.026s-11.409,26.214 -22.02,26.965c-8.199,0.58 -18.325,-4.522 -18.325,-9.35c0,-2.794 2.014,-4.532 4.028,-4.684c4.363,-0.327 4.69,5.887 14.219,5.887c5.588,0 14.445,-6.607 14.445,-16.655c-6.108,0.384 -11.547,0.943 -16.984,1.352c-2.887,0.216 -5.841,-0.315 -5.841,-3.715c0,-2.643 2.082,-4.311 4.365,-4.483l-0.002,0zm-30.891,29.925l0,3.205a2.875,2.875 0 0 1 -2.875,2.875l-28.072,0a2.875,2.875 0 0 1 -1.68,-5.208a19.889,19.889 0 0 1 11.619,-3.747l18.133,0a2.875,2.875 0 0 1 2.875,2.875zm10.358,-28.643c-1.242,0 -2.84,-0.452 -3.463,-2.035c-1.335,-3.542 -2.573,-8.669 -4.388,-15.68c-1.807,-6.859 -4.256,-17.714 -5.8,-20.428c-5.071,13.945 -5.314,34.978 -10.872,34.978c-3.139,0 -4.032,-1.734 -4.876,-4.75c-2.649,-9.875 -5.921,-20.277 -8.453,-29.323c-0.931,2.864 -4.106,19.9 -3.498,29.55c0.027,3.543 -0.197,8.292 -4.512,8.292c-2.354,0 -4.257,-2.187 -4.438,-5.051c-0.263,-5.201 2.576,-19.298 4.082,-29.625c0.783,-5.201 1.586,-23.595 7.863,-23.595c4.38,0 5.68,10.253 6.938,15.681c1.352,5.879 4.069,13.719 6.186,18.241c1.051,-4.07 3.532,-11.382 6.094,-21.56c0.884,-3.617 1.883,-11.607 6.264,-11.607c2.354,0 3.764,2.638 4.494,4.899c3.168,9.8 6.524,29.851 9.279,38.293c1.775,5.353 2.943,9.348 3.024,10.63c0.133,2.11 -2.095,3.09 -3.925,3.09l0.001,0z" xmlns="http://www.w3.org/2000/svg"/>
  <path stroke="#212526" d="m135.57998,6.158l-129.422,0l0,130l130,0l0,-130l-0.578,0z" stroke-width="12.316" stroke-linejoin="round" fill="none" xmlns="http://www.w3.org/2000/svg"/>
 </g>
</svg>